<?xml version="1.0" encoding="utf-8"?>
<!-- Generator: Adobe Illustrator 24.1.1, SVG Export Plug-In . SVG Version: 6.00 Build 0)  -->
<svg version="1.1" id="Layer_1" xmlns="http://www.w3.org/2000/svg" xmlns:xlink="http://www.w3.org/1999/xlink" x="0px" y="0px"
	 viewBox="0 0 512 512" style="enable-background:new 0 0 512 512;" xml:space="preserve">
<style type="text/css">
	.st0{fill:#EB5569;}
	.st1{fill:#CC3253;}
</style>
<path class="st0" d="M512,181.9c0,43.3-16.1,82.9-50.8,124.7c-31,37.4-75.5,75.4-127.1,119.3c-17.6,15-37.6,32-58.3,50.2
	c-5.4,4.8-12.4,7.4-19.6,7.4H256c-7.3,0-14.3-2.6-19.8-7.4C215.5,458,195.6,441,178,426l-0.1-0.1C126.3,382,81.8,344,50.8,306.6
	C16.1,264.8,0,225.2,0,181.9C0,139.8,14.4,101,40.6,72.6C67.1,43.8,103.5,28,143,28c29.6,0,56.6,9.3,80.4,27.8
	c12,9.3,22.9,20.7,32.5,34l0.2-0.2c9.6-13.2,20.4-24.5,32.3-33.7c24-18.6,51-27.9,80.6-27.9c39.5,0,75.9,15.8,102.4,44.6
	C497.6,101,512,139.8,512,181.9z"/>
<path class="st1" d="M512,181.9c0,43.3-16.1,82.9-50.8,124.7c-31,37.4-75.5,75.4-127.1,119.3c-17.6,15-37.6,32-58.3,50.2
	c-5.4,4.8-12.4,7.4-19.6,7.4v-394c9.6-13.2,20.4-24.5,32.3-33.7C312.4,37.3,339.4,28,369,28c39.5,0,75.9,15.8,102.4,44.6
	C497.6,101,512,139.8,512,181.9z"/>
</svg>
